<svg id="Layer_1" data-name="Layer 1" xmlns="http://www.w3.org/2000/svg" viewBox="0 0 231.88 281.46"><title>logo-new</title><path d="M252.5,192.44c1.78-3.84,4.85-9.26,9.12-12.44l4.38-3.27-2-5.09c-.87-2.27-4.26-9.82-11.08-11.73l-1.94-.54c-.1-5.07-.17-10.85-.17-17.24l.08-5.16-.09-1.79c0-.65-.93-16.35-14.43-50-15-37.26-32.56-53.76-46.22-64-7.74-5.78-23.93-12-40.12-12s-32.38,6.27-40.12,12.05C96.28,31.46,78.68,48,63.72,85.22c-13.5,33.61-14.4,49.31-14.43,50L49.2,137l.08,5.16c0,6.39-.07,12.17-.17,17.24l-1.94.54c-6.82,1.91-10.21,9.46-11.08,11.73l-2,5.09L38.5,180c4.07,3,7.22,8.36,9.13,12.44-7.73,7.26-8.82,15.27-8.93,16.3L38,215.81l7.06.84c6.75.8,7.93,2.64,11.09,7.57,4.09,6.38,9.65,15.05,28.1,21.29l8.89,8.67,6.13,6.36a256.45,256.45,0,0,1,21.17,17.28,49.6,49.6,0,0,0,29.47,12.84h.4a49.6,49.6,0,0,0,29.47-12.84,256.45,256.45,0,0,1,21.17-17.28l6.13-6.36,8.89-8.67c18.45-6.24,24-14.91,28.1-21.29,3.16-4.93,4.34-6.77,11.09-7.57l7.06-.84-.75-7.07C261.31,207.71,260.22,199.7,252.5,192.44Z" transform="translate(-34.12 -9.2)" style="fill:#1e2a2d"/><path d="M130.93,158.37a3,3,0,0,0-2.13.87l.28,0a3,3,0,0,1,2.13,5.23,3,3,0,0,0-.28-6.08Z" transform="translate(-34.12 -9.2)" style="fill:#fff"/><path d="M99.58,229.65c-34.82-18.35-40.4-42.29-40-80.08l-3.09-7.44c0,15.2-.39,27-.67,33.56a47,47,0,0,0-6.71-8.84c-3.87,1.08-6.3,7.38-6.3,7.38,9.18,6.83,13.5,20.51,13.5,20.51C46.76,201,45.86,209.5,45.86,209.5c21.66,2.58,9.66,19.37,42.17,29.69l12.18,11.88,7-5.82Z" transform="translate(-34.12 -9.2)" style="fill:#fff"/><path d="M229.72,87.9C216.53,55,201.4,38.62,185.87,27c-17.09-12.78-28.49-11.34-28.49-11.34C177.05,27,199.85,60.91,202.25,80.47s-22.32,1-52.19,1-54.59,18.59-52.19-1S123.07,27,142.74,15.68c0,0-11.4-1.44-28.49,11.34C98.72,38.62,83.59,55,70.4,87.9s-13.92,47.63-13.92,47.63l3.72,7.92c1.08-18.35,26.75,27.6,89.86,87.64,63.11-60,88.78-106,89.86-87.64l3.72-7.92S242.92,120.78,229.72,87.9Zm-99.09,78.46a4.71,4.71,0,1,1,4.71-4.71A4.7,4.7,0,0,1,130.63,166.36Zm38.86,0a4.71,4.71,0,1,1,4.71-4.71A4.71,4.71,0,0,1,169.49,166.36Z" transform="translate(-34.12 -9.2)" style="fill:#fff"/><path d="M169.19,158.37a3,3,0,0,1,2.13.87l-.28,0a3,3,0,0,0-2.13,5.23,3,3,0,0,1,.28-6.08Z" transform="translate(-34.12 -9.2)" style="fill:#fff"/><path d="M187.4,246.39l7.77-15.3c-14.53,5.65-25.91,8.94-45.11,8.94s-30.57-3.29-45.11-8.94l7.77,15.3-9.33,8.28a262.49,262.49,0,0,1,21.84,17.82,42.18,42.18,0,0,0,24.83,11,42.18,42.18,0,0,0,24.83-11,262.49,262.49,0,0,1,21.84-17.82Z" transform="translate(-34.12 -9.2)" style="fill:#fff"/><path d="M200.54,229.65c34.82-18.35,40.4-42.29,40-80.08l3.09-7.44c0,15.2.39,27,.67,33.56a47,47,0,0,1,6.71-8.84c3.87,1.08,6.3,7.38,6.3,7.38-9.18,6.83-13.5,20.51-13.5,20.51,9.54,6.3,10.44,14.76,10.44,14.76-21.66,2.58-9.66,19.37-42.17,29.69l-12.18,11.88-7-5.82Z" transform="translate(-34.12 -9.2)" style="fill:#fff"/><polygon points="53.24 202 59.04 205.86 59.04 197.36 53.24 193.5 53.24 202" style="fill:#fff"/><polygon points="59.04 194 64.84 197.86 64.84 189.36 59.04 185.5 59.04 194" style="fill:#fff"/><polygon points="64.3 184.73 70.1 188.6 70.1 180.1 64.3 176.23 64.3 184.73" style="fill:#fff"/><polygon points="71.5 198 77.3 201.86 77.3 193.36 71.5 189.5 71.5 198" style="fill:#fff"/><polygon points="79.5 200.7 79.5 209.2 85.3 213.06 85.3 204.56 79.5 200.7" style="fill:#fff"/><polygon points="179.96 202 174.16 205.86 174.16 197.36 179.96 193.5 179.96 202" style="fill:#fff"/><polygon points="174.16 194 168.36 197.86 168.36 189.36 174.16 185.5 174.16 194" style="fill:#fff"/><polygon points="168.9 184.73 163.1 188.6 163.1 180.1 168.9 176.23 168.9 184.73" style="fill:#fff"/><polygon points="161.7 198 155.9 201.86 155.9 193.36 161.7 189.5 161.7 198" style="fill:#fff"/><polygon points="153.7 200.7 153.7 209.2 147.9 213.06 147.9 204.56 153.7 200.7" style="fill:#fff"/></svg>