<svg width="27" height="32" viewBox="0 0 27 32" fill="none" xmlns="http://www.w3.org/2000/svg">
<path d="M10.0304 6.99914C9.03565 6.25813 8.10847 5.25846 7.52392 4.00637C7.15181 3.21163 6.83129 2.35067 6.70726 1.4872C6.54393 0.343831 7.30164 -0.235978 8.39215 0.0901647C9.016 0.276353 9.61775 0.547514 10.217 0.809927C11.1712 1.22854 12.1168 1.32851 13.1386 1.01736C14.3286 0.654978 15.5419 0.333834 16.7663 0.128902C17.9882 -0.0747809 18.2178 0.233867 17.9157 1.45346C17.4368 3.38783 16.5059 5.07727 15.1649 6.53179C15.0421 6.66425 14.918 6.79545 14.8075 6.91416C19.6375 9.56704 22.8943 13.612 25.025 18.6515C25.8674 20.6434 26.312 22.7302 26.0123 24.9195C25.6832 27.3262 24.3815 29.0456 22.3281 30.2065C20.6383 31.1624 18.7889 31.6085 16.8878 31.801C13.491 32.1458 10.1041 32.0884 6.77357 31.2299C5.98762 31.0275 5.21026 30.7338 4.47711 30.3802C1.14907 28.7782 -0.44249 25.7042 0.106452 21.9967C0.791707 17.3682 3.07835 13.5807 6.21481 10.293C7.3569 9.09594 8.72127 8.11752 10.0304 6.99914ZM13.7514 25.0957C14.3666 24.8782 14.9549 24.7445 15.4731 24.4721C16.4838 23.941 17.0045 23.0488 16.9812 21.883C16.9578 20.7209 16.3512 19.9324 15.3282 19.4725C14.9193 19.2888 14.4796 19.1764 14.0633 19.0077C13.9331 18.9552 13.7342 18.829 13.7317 18.7315C13.706 17.8281 13.717 16.9246 13.717 15.9762C14.5202 16.1174 15.0605 16.426 15.327 17.162C15.5247 17.7094 15.9558 17.9168 16.3843 17.7006C16.8461 17.4669 16.9308 17.0771 16.7638 16.5935C16.4187 15.5975 15.7249 14.9703 14.7707 14.6216C14.4317 14.4979 14.0781 14.4142 13.7453 14.3167C13.6249 13.6957 13.9675 12.7985 13.006 12.756C11.8811 12.7073 12.3072 13.7332 12.1623 14.2705C11.6047 14.5042 11.0656 14.6616 10.5965 14.9415C9.65951 15.5013 9.19162 16.356 9.24197 17.4882C9.28986 18.5753 9.88915 19.2501 10.7979 19.6924C11.1283 19.8536 11.4905 19.9436 11.8233 20.0998C11.9646 20.166 12.166 20.316 12.1684 20.4335C12.1967 21.3594 12.1844 22.2853 12.1844 23.2688C11.3898 23.0601 10.9355 22.6265 10.6911 21.9255C10.4958 21.3644 10.0991 21.1382 9.67301 21.2932C9.21618 21.4581 9.05899 21.898 9.24934 22.4815C9.53302 23.3537 10.0832 24.0085 10.8691 24.4371C11.2756 24.6596 11.7239 24.8008 12.1463 24.9757C12.279 26.3428 12.4079 26.6064 12.9409 26.6114C13.4714 26.6139 13.6175 26.3353 13.7514 25.0957Z" fill="black"/>
<path d="M13.7314 21.3189C13.7314 20.3992 13.7314 19.5357 13.7314 18.6722C14.736 18.6522 15.4495 19.227 15.4262 20.0193C15.4041 20.8153 14.6856 21.3788 13.7314 21.3189Z" fill="black"/>
<path d="M12.1596 14.0063C12.1596 14.8473 12.1596 15.6482 12.1596 16.4517C11.3196 16.3605 10.8026 15.9594 10.7645 15.3883C10.7203 14.7285 11.2066 14.2262 12.1596 14.0063Z" fill="black"/>
</svg>
