<svg width="29" height="29" viewBox="0 0 29 29" fill="none" xmlns="http://www.w3.org/2000/svg">
<path d="M13.0659 16.1532C13.2437 16.1569 13.3957 16.0178 13.4012 15.8455C13.4068 15.6751 13.2594 15.524 13.0843 15.5194C12.8964 15.5148 12.7591 15.641 12.7536 15.8262C12.748 16.0021 12.889 16.1495 13.0659 16.1532Z" fill="black"/>
<path d="M15.9975 16.1532C16.1744 16.1477 16.3135 15.9994 16.3061 15.8225C16.2988 15.6382 16.1606 15.5129 15.9726 15.5185C15.7976 15.524 15.6511 15.6778 15.6585 15.8474C15.6677 16.0215 15.8197 16.1587 15.9975 16.1532Z" fill="black"/>
<path d="M14.5169 0.28241C6.67779 0.28241 0.299805 6.6604 0.299805 14.4995C0.299805 22.3387 6.67779 28.7167 14.5169 28.7167C22.3561 28.7167 28.7341 22.3387 28.7341 14.4995C28.7341 6.6604 22.3561 0.28241 14.5169 0.28241ZM7.52813 13.558C7.7824 12.2378 8.23936 10.9849 8.76817 9.75589C9.18459 8.78855 9.69958 7.87464 10.3924 7.0759C11.1681 6.18134 12.0359 5.39825 13.182 4.99566C13.5164 4.87865 13.7735 4.84825 13.9614 4.88695C13.9402 4.97999 13.8518 4.99934 13.7928 5.0454C12.3142 6.17857 11.2814 7.62682 10.7194 9.4058C10.6595 9.59558 10.6356 9.79458 10.6457 9.99634C10.6586 10.2432 10.7867 10.3768 11.0327 10.3879C11.4233 10.4054 11.79 10.2801 12.1594 10.1824C12.9029 9.98621 13.6491 9.80932 14.4211 9.79182C15.089 9.77708 15.7431 9.89408 16.3899 10.0516C16.8127 10.1548 17.2347 10.258 17.6576 10.3612C17.6787 10.3667 17.6999 10.375 17.722 10.3787C18.272 10.4736 18.4932 10.258 18.4066 9.70798C18.3375 9.26669 18.1864 8.85119 17.9947 8.44952C17.4346 7.27581 16.6792 6.24583 15.7081 5.37983C15.5543 5.24256 15.3765 5.13385 15.2134 5.00671C15.1729 4.97447 15.0771 4.96433 15.1148 4.88695C15.1434 4.82706 15.2208 4.85746 15.277 4.86391C15.7533 4.91827 16.1964 5.07765 16.6082 5.31902C17.9275 6.09382 18.9262 7.18553 19.665 8.51124C20.5402 10.0811 21.1593 11.7514 21.5186 13.5156C21.5923 13.8777 21.5426 14.0601 21.268 14.4572C21.1252 14.1467 21.0792 14.131 20.8166 14.3402C20.4674 14.6165 20.1846 14.9611 19.8981 15.2974C18.2453 17.2376 16.5502 19.1372 14.7168 20.9107C14.5713 21.0516 14.4902 21.0526 14.3465 20.9107C13.1673 19.7397 12.0092 18.5495 10.9083 17.303C10.0874 16.3734 9.31449 15.4024 8.4448 14.5161C8.38308 14.4535 8.31767 14.3927 8.24673 14.3392C7.97587 14.1356 7.93902 14.1448 7.78517 14.4765C7.62763 14.1706 7.45996 13.9118 7.52813 13.558ZM18.4397 18.566L18.9685 18.2639V18.8682L18.4397 19.1704V18.566ZM17.9855 18.566V17.9617L18.5143 17.6595V18.2639L17.9855 18.566ZM18.893 19.1704L19.4218 18.8682V19.4726L18.893 19.7748V19.1704ZM17.9855 18.7171V19.3215L17.4567 19.6237V19.0193L17.9855 18.7171ZM17.3812 19.6992V20.3036L16.8524 20.6057V20.0014L17.3812 19.6992ZM12.316 20.0023V20.6067L11.7872 20.3045V19.7001L12.316 20.0023ZM10.1998 18.8682V18.2639L10.7286 18.566V19.1704L10.1998 18.8682ZM10.2754 19.1704V19.7748L9.74656 19.4726V18.8682L10.2754 19.1704ZM10.6531 18.2629V17.6586L11.1819 17.9608V18.5651L10.6531 18.2629ZM11.1819 18.7171L11.7107 19.0193V19.6237L11.1819 19.3215V18.7171ZM10.6043 22.3939C10.5785 22.3589 10.5416 22.3313 10.5112 22.2991C10.1639 21.9241 9.78802 21.6118 9.28316 21.4367C8.71289 21.2377 8.27344 20.8342 7.9639 20.3063C7.70225 19.8604 7.36967 19.5196 6.82059 19.4615C6.66582 19.4449 6.71372 19.3307 6.74044 19.2413C6.84731 18.8885 7.07671 18.6204 7.35401 18.3938C7.44706 18.3173 7.45996 18.2482 7.41758 18.1478C7.19647 17.6263 6.93391 17.1362 6.46314 16.7898C6.46314 16.7751 6.46314 16.7603 6.46314 16.7456C6.55803 16.5964 6.63357 16.4342 6.76532 16.3108C6.88969 16.1947 7.00485 16.1818 7.11356 16.3347C7.21582 16.4784 7.32269 16.6185 7.47654 16.7613C7.47654 15.9763 7.47654 15.1905 7.47654 14.4056C7.50234 14.4028 7.52813 14.4 7.55393 14.3973C7.66724 14.6525 7.79899 14.8975 7.79162 15.1969C7.77411 15.9432 7.81557 16.6857 7.96021 17.4209C8.2283 18.7798 8.95703 19.831 10.1418 20.5284C10.6282 20.8149 10.9488 21.1723 11.1524 21.6855C11.3219 22.1139 11.3413 22.0964 10.9958 22.4124C10.8438 22.5524 10.7286 22.5662 10.6043 22.3939ZM17.9349 22.9089C17.3277 23.3429 16.7823 23.8514 16.2084 24.3259C15.7616 24.6953 15.2272 24.8851 14.6625 24.9947C14.574 24.9947 14.4856 24.9947 14.3962 24.9947C13.5091 24.8602 12.8255 24.3618 12.1935 23.7666C11.871 23.4635 11.5182 23.1945 11.1598 22.9366C11.0096 22.8288 11.029 22.756 11.1543 22.6537C11.2971 22.5377 11.426 22.4041 11.5707 22.2898C11.673 22.2088 11.6766 22.1314 11.6195 22.0236C11.485 21.7693 11.3579 21.5114 11.2298 21.2534C11.2013 21.1963 11.1386 21.13 11.1838 21.0728C11.2344 21.0102 11.3081 21.0728 11.3652 21.094C11.9199 21.2967 12.4781 21.4856 13.065 21.5703C14.6312 21.797 16.1651 21.6984 17.6502 21.1106C17.6843 21.0968 17.7184 21.083 17.7534 21.071C17.7939 21.0581 17.8409 21.0277 17.875 21.071C17.9063 21.1106 17.875 21.1567 17.8566 21.1935C17.7285 21.4515 17.6078 21.7131 17.465 21.9628C17.3747 22.1203 17.3858 22.2254 17.535 22.3359C17.6769 22.4409 17.7994 22.5708 17.9339 22.6851C18.0316 22.7634 18.0454 22.8297 17.9349 22.9089ZM22.4878 16.8755C22.0963 17.2108 21.8567 17.6475 21.6559 18.1128C21.6015 18.2399 21.6135 18.3191 21.7278 18.4131C21.9866 18.6259 22.1985 18.8793 22.3091 19.2063C22.3588 19.3547 22.3782 19.4477 22.1672 19.4763C21.7664 19.5306 21.4422 19.7397 21.2432 20.0944C20.8037 20.8775 20.1459 21.3741 19.2983 21.6348C19.2016 21.6643 19.1307 21.7242 19.0625 21.7924C18.8534 22.0006 18.6433 22.2088 18.4333 22.417C18.3964 22.4529 18.3596 22.5146 18.319 22.5174C18.0804 22.5358 17.9966 22.2954 17.8206 22.2023C17.7414 22.1599 17.7165 22.0881 17.7617 21.996C17.9256 21.6652 18.0869 21.3336 18.2472 21.001C18.2923 20.9061 18.3771 20.8655 18.4618 20.8186C19.4227 20.2842 20.2381 19.6034 20.719 18.5826C21.0718 17.8346 21.1989 17.0358 21.2496 16.2223C21.2717 15.8621 21.2699 15.4991 21.269 15.138C21.268 14.8607 21.4099 14.6386 21.503 14.3973C21.526 14.4 21.5481 14.4028 21.5711 14.4056C21.5711 15.1886 21.5711 15.9717 21.5711 16.7548C21.5905 16.7576 21.6098 16.7603 21.6301 16.7631C21.7397 16.6166 21.8521 16.4711 21.959 16.3227C22.0557 16.1882 22.1608 16.1974 22.275 16.296C22.3948 16.3992 22.4721 16.5337 22.5477 16.6701C22.5965 16.7576 22.5587 16.8147 22.4878 16.8755Z" fill="black"/>
</svg>
