<svg width="32" height="31" viewBox="0 0 32 31" fill="none" xmlns="http://www.w3.org/2000/svg">
<path d="M25.4707 15.5353C25.4694 21.0074 20.9914 25.4771 15.5083 25.4785C9.99323 25.4812 5.52222 21.0033 5.53053 15.4827C5.53745 10.0037 10.0098 5.53824 15.4903 5.53824C21.0053 5.53962 25.4721 10.0134 25.4707 15.5353ZM14.395 12.6816C14.395 13.5802 14.3396 14.483 14.4213 15.3733C14.4559 15.7555 14.6872 16.2332 14.9862 16.4575C15.9956 17.2177 17.0687 17.8962 18.1321 18.5829C18.7386 18.9748 19.3548 18.8626 19.7176 18.3434C20.0942 17.8034 19.9557 17.1734 19.3312 16.74C18.614 16.2401 17.8981 15.7333 17.1463 15.2889C16.7087 15.03 16.5827 14.7212 16.5952 14.2296C16.6298 12.8713 16.6132 11.5116 16.6049 10.1532C16.5993 9.35431 16.1507 8.85307 15.4806 8.86691C14.8312 8.87938 14.4075 9.36123 14.3978 10.1242C14.3867 10.9771 14.395 11.83 14.395 12.6816Z" fill="black"/>
<path d="M8.26234 4.35713C9.54313 4.51359 10.0208 4.90683 9.95575 5.63515C9.89206 6.34824 9.39636 6.64871 8.27757 6.64871C7.42324 6.64871 6.5703 6.65702 5.71598 6.64594C4.82289 6.63486 4.43103 6.23055 4.42411 5.31392C4.41719 4.36821 4.41857 3.42111 4.42411 2.4754C4.42827 1.60723 4.84643 1.10322 5.5429 1.11014C6.20753 1.11707 6.59661 1.58508 6.64231 2.42971C6.64646 2.49756 6.65892 2.5654 6.67415 2.69417C6.85 2.6014 7.00785 2.53079 7.15185 2.44078C16.3971 -3.32901 28.2524 1.60862 30.6561 12.2302C32.6583 21.0808 26.343 29.9038 17.293 30.9021C8.94081 31.8229 1.48867 26.1555 0.169109 17.8671C0.0611073 17.1858 0.0264912 16.4907 0.00156769 15.7998C-0.0288944 14.9261 0.386498 14.4165 1.0802 14.4041C1.77114 14.3916 2.18099 14.8942 2.21284 15.7624C2.37761 20.2265 4.24688 23.8099 7.87325 26.4103C12.2556 29.5521 18.1902 29.6421 22.7263 26.7191C27.2762 23.7864 29.6467 18.2769 28.6013 13.0596C27.5075 7.60273 23.42 3.50557 18.0185 2.46709C14.5791 1.80523 11.3861 2.46432 8.26234 4.35713Z" fill="black"/>
</svg>
